<svg width="24" height="23" viewBox="0 0 24 23" fill="none" xmlns="http://www.w3.org/2000/svg">
    <path d="M5.22014 0.00198429L5.25353 0.00415252C5.86424 0.055659 6.39596 0.354842 6.87952 0.820091L7.029 0.968245C7.95684 1.92342 9.6279 4.11748 9.90055 4.89514L9.9299 4.997C10.0961 5.783 9.91921 6.29344 9.39149 7.19638L9.26394 7.41831C9.02183 7.8535 8.98483 8.033 9.05966 8.23853C10.2107 11.0125 12.1748 12.9464 14.9603 14.0667C15.224 14.161 15.4231 14.1072 15.9799 13.7926L16.2715 13.6302C17.0544 13.2073 17.5508 13.0734 18.2828 13.2229C18.9063 13.3513 20.9219 14.8034 22.0862 15.8233L22.4077 16.1146L22.5232 16.227C22.9965 16.7042 23.3012 17.2284 23.3543 17.8706C23.4102 19.4314 21.4762 21.629 20.297 22.2894C18.9557 23.2356 17.2533 23.2196 15.3432 22.3442C10.351 20.2985 2.7147 12.8268 0.679676 7.91683L0.557921 7.64232C-0.214377 5.82446 -0.197374 4.25286 0.687001 3.06942C1.49302 1.75241 3.67437 -0.068473 5.22014 0.00198429ZM5.12382 1.68356L5.02283 1.68878C4.22956 1.79275 2.63635 3.1435 2.1077 4.00107L2.01623 4.13517C1.5601 4.86737 1.6128 5.87372 2.24805 7.25025L2.36954 7.53029C4.41963 12.0612 11.5179 18.9541 16.0315 20.8044L16.2802 20.9133C17.5868 21.4588 18.5749 21.4347 19.3749 20.8753L19.4341 20.8378C19.6817 20.6683 20.2528 20.1574 20.6927 19.6575C21.3106 18.9554 21.6606 18.3122 21.6492 17.9697C21.6369 17.8233 21.5222 17.6258 21.3122 17.414L21.2171 17.3214C20.4032 16.5542 18.1827 14.9215 17.9346 14.8704C17.6806 14.8185 17.472 14.8886 16.9023 15.2114L16.6146 15.3706C15.7748 15.8164 15.1821 15.9362 14.3461 15.6366C11.1043 14.3336 8.8028 12.0676 7.46563 8.84313C7.14885 7.98086 7.31948 7.37112 7.87072 6.42549L8.00169 6.19866C8.25202 5.75373 8.30484 5.56494 8.25708 5.33904C8.20653 5.09842 6.67819 3.08605 5.88929 2.23272L5.68593 2.02298L5.57818 1.92645C5.43025 1.80192 5.29888 1.72635 5.18747 1.69554L5.12382 1.68356ZM14.6512 4.2561L14.7664 4.27041C17.1239 4.72301 18.9661 6.53752 19.4257 8.85955C19.5159 9.31565 19.2137 9.75747 18.7506 9.84637C18.2875 9.93527 17.839 9.6376 17.7487 9.18149C17.4223 7.53214 16.1141 6.24359 14.4396 5.92211C13.9765 5.83321 13.6743 5.39139 13.7645 4.93529C13.8397 4.5552 14.1638 4.28513 14.5377 4.25711L14.6512 4.2561ZM14.5812 0.280293L14.6972 0.285257C19.3102 0.78969 22.9531 4.37345 23.4715 8.91644C23.5242 9.37822 23.1869 9.79465 22.7181 9.84655C22.2492 9.89846 21.8264 9.56619 21.7737 9.10441C21.3445 5.34274 18.3282 2.37543 14.5087 1.95777C14.0398 1.90649 13.7019 1.49052 13.754 1.02867C13.7973 0.643795 14.0979 0.348512 14.4682 0.290448L14.5812 0.280293Z" fill="#8B868F"/>
</svg>
