<svg width="60" height="60" viewBox="0 0 60 60" fill="none" xmlns="http://www.w3.org/2000/svg">
    <g clip-path="url(#clip0)">
    <path d="M51.374 8.96732C48.5848 6.12773 45.2583 3.87235 41.5885 2.33279C37.9188 0.793224 33.9793 0.000305176 30 0.000305176C26.0207 0.000305176 22.0812 0.793224 18.4114 2.33279C14.7417 3.87235 11.4151 6.12773 8.62592 8.96732H51.374Z" fill="#F7941E"/>
    <path d="M58.6654 21.1469H32.837C32.4418 21.5161 31.9473 21.7616 31.4144 21.8534C30.8815 21.9452 30.3334 21.8792 29.8374 21.6636C29.3415 21.4479 28.9194 21.0919 28.6229 20.6395C28.3265 20.187 28.1687 19.6577 28.1688 19.1167C28.1688 16.6872 31.0681 15.4429 32.837 17.0881H57.0449C56.377 15.6764 55.6004 14.3188 54.722 13.0277H5.2765C4.40084 14.3194 3.62635 15.6769 2.95996 17.0881H25.3318V59.631C26.6743 59.845 28.0296 59.9682 29.3886 60V25.2072H59.5786C59.3695 23.8341 59.0644 22.4773 58.6654 21.1469Z" fill="#F7941E"/>
    <path d="M30.8046 20.4329C30.9896 20.4533 31.1767 20.4345 31.3539 20.3776C31.531 20.3208 31.6942 20.2272 31.8328 20.103C31.9714 19.9788 32.0823 19.8268 32.1582 19.6568C32.2341 19.4869 32.2733 19.3028 32.2733 19.1167C32.2733 18.9305 32.2341 18.7465 32.1582 18.5765C32.0823 18.4066 31.9714 18.2545 31.8328 18.1303C31.6942 18.0061 31.531 17.9126 31.3539 17.8557C31.1767 17.7989 30.9896 17.7801 30.8046 17.8005C29.2273 17.9682 29.2321 20.2652 30.8046 20.4329Z" fill="#F7941E"/>
    <path d="M21.2735 21.1469H1.33309C0.935596 22.4777 0.630468 23.8344 0.419883 25.2073H14.4133C16.211 23.5301 19.0847 24.8527 19.0847 27.2359C19.0847 29.6526 16.187 30.9193 14.4149 29.266H0.0367215C0.0367215 29.5168 0 29.7628 0 30.0152C0 43.554 8.96281 54.9908 21.2735 58.7317V21.1469Z" fill="#F7941E"/>
    <path d="M33.4532 29.266V59.8179C34.8217 59.6541 36.1772 59.3958 37.51 59.0448V36.3885C37.0289 35.8757 36.7611 35.1989 36.7612 34.4956C36.7612 32.023 39.8281 30.7371 41.5667 32.6044C42.0478 33.1168 42.3156 33.7934 42.3156 34.4964C42.3156 35.1995 42.0478 35.8761 41.5667 36.3885V57.7142C47.0263 55.4297 51.6891 51.5813 54.9688 46.6529C58.2486 41.7245 59.999 35.936 60 30.0152C60 29.7628 59.9665 29.5168 59.9617 29.266H33.4532Z" fill="#F7941E"/>
    <path d="M17.6351 27.2358C17.6351 25.4788 14.9753 25.4788 14.9753 27.2358C14.9753 28.9929 17.6351 28.9945 17.6351 27.2358Z" fill="#F7941E"/>
    <path d="M40.8642 34.5004C40.8642 32.7434 38.2045 32.7434 38.2045 34.5004C38.2045 36.2575 40.8642 36.2575 40.8642 34.5004Z" fill="#F7941E"/>
    </g>
    <defs>
    <clipPath id="clip0">
    <rect width="60" height="60" fill="white"/>
    </clipPath>
    </defs>
</svg>
