<svg width="25" height="20" viewBox="0 0 25 20" fill="none" xmlns="http://www.w3.org/2000/svg">
    <path d="M17.7805 0C19.6337 0.0189453 21.3976 0.73104 22.6613 1.97049C23.9251 3.20995 24.5783 4.86856 24.4706 6.50997L24.469 13.4399C24.5783 15.1314 23.9251 16.7901 22.6613 18.0295C21.3976 19.269 19.6337 19.9811 17.7701 20H6.67894C2.7991 20 0 17.1539 0 13.49V6.50997C0 2.84612 2.7991 0 6.67894 0H17.7805ZM17.7598 1.6982H6.67894C3.87159 1.6982 1.85751 3.74617 1.85751 6.50997V13.49C1.85751 16.2538 3.87159 18.3018 6.67894 18.3018H17.7598C19.105 18.2881 20.3853 17.7712 21.3026 16.8715C22.2199 15.9719 22.6941 14.7679 22.6131 13.49L22.6147 6.45988C22.6941 5.23208 22.2199 4.02815 21.3026 3.12847C20.3853 2.2288 19.105 1.71191 17.7598 1.6982ZM19.6151 6.26485C19.9065 6.59769 19.8794 7.06957 19.5713 7.37279L19.4704 7.45839L14.443 11.1374C13.222 12.0075 11.5349 12.051 10.2617 11.2639L10.0643 11.1328L5.00324 7.46059C4.60146 7.16907 4.53424 6.63496 4.8531 6.26762C5.14297 5.93368 5.65214 5.85253 6.04418 6.05956L6.15794 6.13035L11.2126 9.79791C11.7793 10.2018 12.5562 10.2328 13.1479 9.89646L13.2917 9.80472L18.3096 6.13255C18.7101 5.8395 19.2946 5.89873 19.6151 6.26485Z" fill="#ECEBED"/>
</svg>
