<svg width="19" height="20" viewBox="0 0 19 20" fill="none" xmlns="http://www.w3.org/2000/svg">
    <path d="M9.49782 4.96418e-05L9.77893 0.00474006C14.8202 0.15572 18.8476 3.93197 18.8304 8.55269L18.8302 8.65503C18.7729 11.4113 17.2535 14.1253 14.7327 16.5473C13.4892 17.7231 12.1004 18.764 10.5943 19.6493L10.6052 19.642L10.5522 19.6828C9.95006 20.0755 9.15218 20.1036 8.52212 19.767L8.37987 19.6828L8.31341 19.6355L7.85792 19.3572C5.96613 18.1734 4.2813 16.7372 2.86355 15.1009L2.51471 14.6877C1.02939 12.9207 0.186084 10.7761 0.101685 8.5263L0.106783 8.2414C0.272553 3.6514 4.42007 -0.0155586 9.49782 4.96418e-05ZM9.49216 1.51751L9.22752 1.52076C5.09823 1.63503 1.78242 4.71226 1.76828 8.49991L1.78931 8.85694C1.93243 10.6374 2.64349 12.3442 3.84344 13.7718C5.33316 15.5831 7.16131 17.1416 9.24429 18.376L9.33486 18.4381C9.41016 18.4974 9.52186 18.4974 9.59716 18.4381L9.69035 18.3745C11.0886 17.5526 12.3778 16.5863 13.5276 15.4992C15.7826 13.3325 17.1156 10.9515 17.1638 8.64066L17.1602 8.30916C17.0347 4.54947 13.6549 1.53043 9.49216 1.51751ZM9.46601 5.40129C11.4363 5.40129 13.0335 6.85554 13.0335 8.64946C13.0335 10.4434 11.4363 11.8976 9.46601 11.8976C7.49575 11.8976 5.89853 10.4434 5.89853 8.64946C5.89853 6.85554 7.49575 5.40129 9.46601 5.40129ZM9.46601 6.91871C8.41618 6.91871 7.56513 7.69359 7.56513 8.64946C7.56513 9.60532 8.41618 10.3802 9.46601 10.3802C10.5158 10.3802 11.3669 9.60532 11.3669 8.64946C11.3669 7.69359 10.5158 6.91871 9.46601 6.91871Z" fill="#ECEBED"/>
</svg>
