<svg width="24" height="23" viewBox="0 0 24 23" fill="none" xmlns="http://www.w3.org/2000/svg">
<path d="M11.2825 0C17.5136 0 22.565 4.83942 22.565 10.8091C22.565 13.6264 21.44 16.1919 19.5969 18.1159L23.2217 21.5782C23.5614 21.9028 23.5621 22.4299 23.2233 22.7554C22.9152 23.0513 22.4325 23.0788 22.092 22.8374L21.9944 22.7569L18.3269 19.253C16.3965 20.7331 13.9474 21.6183 11.2825 21.6183C5.05134 21.6183 0 16.7789 0 10.8091C0 4.83942 5.05134 0 11.2825 0ZM11.2825 1.6649C6.01111 1.6649 1.73781 5.75892 1.73781 10.8091C1.73781 15.8594 6.01111 19.9534 11.2825 19.9534C16.5539 19.9534 20.8272 15.8594 20.8272 10.8091C20.8272 5.75892 16.5539 1.6649 11.2825 1.6649Z" fill="#8B868F"/>
</svg>
