<svg width="23" height="20" viewBox="0 0 23 20" fill="none" xmlns="http://www.w3.org/2000/svg">
    <path d="M4.92506 0.00172603L4.95439 0.00344441C5.53156 0.0468663 6.03284 0.307216 6.49045 0.713048C7.36007 1.48398 9.22742 3.73367 9.36841 4.3459C9.52444 5.02891 9.35761 5.47252 8.86028 6.25724L8.73974 6.45064C8.51152 6.82898 8.47663 6.98521 8.54729 7.16409C9.63316 9.57632 11.4861 11.258 14.1133 12.232C14.3621 12.3138 14.55 12.2669 15.0758 11.9931L15.3501 11.8522C16.0893 11.4842 16.5579 11.3679 17.2487 11.4985C17.9209 11.6264 20.4007 13.3224 21.2488 14.1108C21.6953 14.5257 21.9827 14.9816 22.0328 15.5399C22.0855 16.8972 20.261 18.8082 19.148 19.3828C17.8823 20.2046 16.2761 20.191 14.4751 19.4301C9.76552 17.6513 2.56144 11.1539 0.641608 6.88432L0.526684 6.64549C-0.202302 5.06399 -0.186506 3.69766 0.648878 2.66758C1.41114 1.52176 3.46631 -0.0595114 4.92506 0.00172603ZM4.83314 1.463L4.7389 1.46849C3.99019 1.55878 2.48876 2.73207 1.98875 3.47834L1.90237 3.59502C1.47162 4.23205 1.52155 5.10687 2.12125 6.3047L2.23586 6.54822C4.16991 10.4882 10.8664 16.4822 15.1245 18.0911L15.359 18.1858C16.591 18.6598 17.5236 18.6388 18.2786 18.1528L18.3344 18.1202C18.5681 17.9729 19.1068 17.5285 19.5218 17.0938C20.1047 16.4833 20.4349 15.9239 20.4242 15.6262C20.4126 15.4988 20.3043 15.3271 20.0957 15.1332C19.4653 14.5472 17.1725 12.9791 16.9191 12.9309C16.6795 12.8856 16.4829 12.9465 15.9451 13.2273L15.6745 13.3652C14.8822 13.7531 14.3236 13.8573 13.5344 13.5973C10.4761 12.4643 8.30493 10.4938 7.04345 7.68981C6.74464 6.9401 6.90549 6.40968 7.42511 5.58764L7.54891 5.38993C7.78496 5.00305 7.83492 4.83891 7.79044 4.6442C7.73718 4.41294 6.01073 2.33301 5.36424 1.75988C5.15016 1.57003 4.96206 1.47233 4.82128 1.46174L4.83314 1.463Z" fill="#ECEBED"/>
</svg>
